<svg width="113" height="29" viewBox="0 0 113 29" fill="none" xmlns="http://www.w3.org/2000/svg">
<path fill-rule="evenodd" clip-rule="evenodd" d="M91.0057 17.8863H90.4151V11.7835H91.0057C93.5665 11.7835 93.97 13.596 93.97 14.909C93.97 16.2221 93.443 17.8863 91.0057 17.8863ZM98.3016 27.6412L94.6106 19.9399C96.2591 19.0587 97.5032 17.4272 97.5032 14.909C97.5032 10.828 94.6866 8.74379 91.4304 8.74379H87.2565C87.0496 8.74379 86.8818 8.91032 86.8818 9.11575V27.8009C86.8818 28.0063 87.0496 28.1728 87.2565 28.1728H90.0404C90.2473 28.1728 90.4151 28.0063 90.4151 27.8009V20.7458H91.3214L94.5235 27.9512C94.5834 28.0859 94.7179 28.1728 94.8663 28.1728H97.9634C98.2387 28.1728 98.4201 27.888 98.3016 27.6412ZM79.8608 22.5079C79.8608 23.7267 79.3377 25.1759 77.8415 25.1759C76.3453 25.1759 75.8222 23.7267 75.8222 22.5079V11.3056C75.8222 10.0868 76.3453 8.63765 77.8415 8.63765C79.3377 8.63765 79.8608 10.0868 79.8608 11.3056V22.5079ZM83.6788 11.6838C83.6788 7.35912 81.079 5.40531 77.8415 5.40531C74.6041 5.40531 72.0041 7.35912 72.0041 11.6838V22.1297C72.0041 26.4542 74.6041 28.408 77.8415 28.408C81.079 28.408 83.6788 26.4542 83.6788 22.1297V11.6838ZM12.6745 27.8009V9.11575C12.6745 8.91032 12.8423 8.74379 13.0492 8.74379H21.4971C21.704 8.74379 21.8718 8.91032 21.8718 9.11575V11.5602C21.8718 11.7657 21.704 11.9322 21.4971 11.9322H16.208V16.5666H20.3101C20.5173 16.5666 20.685 16.7331 20.685 16.9386V19.3828C20.685 19.5885 20.5173 19.755 20.3101 19.755H16.208V24.9844H21.4971C21.704 24.9844 21.8718 25.1509 21.8718 25.3564V27.8009C21.8718 28.0063 21.704 28.1728 21.4971 28.1728H13.0492C12.8423 28.1728 12.6745 28.0063 12.6745 27.8009ZM72.0066 2.7675V5.48491C72.0066 5.69033 71.8389 5.85687 71.632 5.85687H67.8167V27.8009C67.8167 28.0063 67.6489 28.1728 67.442 28.1728H64.2784C64.0714 28.1728 63.9037 28.0063 63.9037 27.8009V5.85687H60.0886C59.8815 5.85687 59.7137 5.69033 59.7137 5.48491V2.7675C59.7137 2.56208 59.8815 2.39554 60.0886 2.39554H71.632C71.8389 2.39554 72.0066 2.56208 72.0066 2.7675ZM0.159912 15.5479V13.2071C0.159912 13.0016 0.327667 12.8351 0.534827 12.8351H10.372C10.5789 12.8351 10.7467 13.0016 10.7467 13.2071V15.5479C10.7467 15.7534 10.5789 15.9199 10.372 15.9199H7.22015V27.8006C7.22015 28.0063 7.0524 28.1728 6.84547 28.1728H4.06138C3.85445 28.1728 3.68669 28.0063 3.68669 27.8006V15.9199H0.534827C0.327667 15.9199 0.159912 15.7534 0.159912 15.5479ZM107.68 12.7564C107.741 12.6231 107.874 12.5375 108.021 12.5375H110.951C111.231 12.5375 111.412 12.8319 111.284 13.0797L106.763 21.8095V27.8009C106.763 28.0063 106.596 28.1728 106.388 28.1728H103.754C103.547 28.1728 103.38 28.0063 103.38 27.8009V21.8095L98.8588 13.0797C98.7305 12.8319 98.9116 12.5375 99.192 12.5375H102.121C102.268 12.5375 102.402 12.6231 102.462 12.756L105.074 18.4829L107.68 12.7564ZM53.717 27.8009V0.371959C53.717 0.166535 53.8847 0 54.0916 0H57.2553C57.4622 0 57.6299 0.166535 57.6299 0.371959V27.8009C57.6299 28.0063 57.4622 28.1728 57.2553 28.1728H54.0916C53.8847 28.1728 53.717 28.0063 53.717 27.8009ZM42.5394 13.4637V5.43504H43.4298C46.2758 5.43504 46.8436 7.69585 46.8436 9.4495C46.8436 11.2029 46.0843 13.4637 43.2097 13.4637H42.5394ZM51.6777 27.6664L47.1065 15.9762C49.3899 14.7766 50.6764 12.3323 50.6764 9.4495C50.6764 5.34743 48.2246 2.0977 43.8544 2.0977H39.081C38.8741 2.0977 38.7063 2.26447 38.7063 2.46989V27.8009C38.7063 28.0063 38.8741 28.1728 39.081 28.1728H42.1644C42.3716 28.1728 42.5394 28.0063 42.5394 27.8009V16.7695H43.5205L47.5522 27.9265C47.6057 28.0742 47.7469 28.1728 47.905 28.1728H51.3283C51.5917 28.1728 51.7728 27.9102 51.6777 27.6664ZM28.3532 8.7001H29.0936C31.6544 8.7001 32.2076 10.5873 32.2076 11.9004C32.2076 13.2132 31.6147 15.1005 28.9097 15.1005H28.3532V8.7001ZM36.6714 27.6664L32.7081 17.5308C34.5876 16.576 35.7409 14.6871 35.7409 11.9004C35.7409 7.70638 33.4854 5.51145 29.5183 5.51145H25.1946C24.9877 5.51145 24.82 5.67799 24.82 5.88364V27.8009C24.82 28.0063 24.9877 28.1728 25.1946 28.1728H27.9785C28.1854 28.1728 28.3532 28.0063 28.3532 27.8009V18.2576H29.2768L32.7708 27.9265C32.8243 28.0742 32.9655 28.1728 33.1236 28.1728H36.322C36.5854 28.1728 36.7665 27.9102 36.6714 27.6664Z" fill="#333335"/>
</svg>
